:SAMPLES-PER-SECOND 30
:FULLY-SPECIFIED
:DEGREES
135
root  -19.4862 35.2304 -15.2414 -171.931 5.3927 -178.604
RightUpLeg  -10.4632 -9.05168 -6.96905
RightLeg  17.2392 8.06326 1.93737
RightFoot  11.2033 -0.119664 1.70959
RightToes  -41.7632 -0.232719 -0.324864
Spine  -3.94253 1.18802 -0.411722
Spine1  -7.96286 2.59643 -0.283535
HEad  -68.5451 -1.01578 6.43843
LeftShoulder1  -1.94126e-019 -3.10601e-018 -2.51263e-017
LeftArm  -75.2324 -35.8678 18.0031
LeftForeArm  57.349 -73.8056 -33.0519
LeftHand  -1.55203 -3.93548 19.4408
RightShoulder  -4.96962e-017 0 -2.36833e-017
RightArm  -91.1444 38.0506 -26.1878
RightForeArm  63.2209 67.9603 20.5355
RightHand  -0.14665 -4.82267 -29.3157
LeftUpLeg  -8.63423 6.82253 5.76152
LeftLeg  21.5669 9.88574 3.16801
LeftFoot  6.41344 -0.067309 1.36288
LeftToes  -34.5348 1.70063e-006 7.6642e-008
136
root  -19.4447 35.7318 -15.1453 -170.789 5.58272 -178.503
RightUpLeg  -10.1369 -9.1256 -6.68301
RightLeg  13.4057 9.05246 1.54604
RightFoot  16.0387 -0.304509 2.64645
RightToes  -42.4503 -0.238347 -0.328541
Spine  -4.38466 1.20046 -0.45765
Spine1  -8.81632 2.63125 -0.376687
HEad  -69.7977 -0.610835 7.11948
LeftShoulder1  -1.94126e-019 -3.10601e-018 -2.51263e-017
LeftArm  -78.9211 -39.7651 27.6907
LeftForeArm  38.9543 -56.1684 -13.4234
LeftHand  -0.979182 -4.30638 11.9761
RightShoulder  -4.96962e-017 0 -2.36833e-017
RightArm  -98.86 41.615 -40.3909
RightForeArm  53.1703 43.0769 6.90473
RightHand  -0.408275 -3.15374 -20.7946
LeftUpLeg  -8.57671 5.78822 5.75791
LeftLeg  18.4585 10.7225 2.80697
LeftFoot  11.195 -0.217026 2.37568
LeftToes  -37.1936 1.70063e-006 7.6642e-008
137
root  -19.4047 36.0056 -15.0376 -169.833 5.40871 -178.354
RightUpLeg  -8.73132 -8.37899 -6.32689
RightLeg  8.22126 8.672 0.687972
RightFoot  19.4421 -0.433683 3.01933
RightToes  -43.3613 -0.245876 -0.333312
Spine  -4.65892 1.46877 -0.274636
Spine1  -9.38168 3.39037 -0.205276
HEad  -70.8172 -0.492089 7.30258
LeftShoulder1  -1.94126e-019 -3.10601e-018 -2.51263e-017
LeftArm  -85.8469 -43.6525 36.4174
LeftForeArm  39.211 -39.3282 -6.72624
LeftHand  -0.506801 -6.51582 5.27877
RightShoulder  -4.96962e-017 0 -2.36833e-017
RightArm  -106.659 42.462 -55.1311
RightForeArm  54.1651 20.3843 1.69501
RightHand  -0.499156 -0.553565 -11.9757
LeftUpLeg  -7.77337 4.15044 5.78589
LeftLeg  14.3923 12.2545 2.29696
LeftFoot  13.834 -0.376323 3.26284
LeftToes  -37.1745 1.70063e-006 7.6642e-008
138
root  -19.3613 35.925 -14.8935 -169.693 5.06964 -178.433
RightUpLeg  -8.13845 -8.39819 -6.2041
RightLeg  6.74444 7.94467 0.425616
RightFoot  18.5615 -0.349873 2.63341
RightToes  -43.2771 -0.245177 -0.332876
Spine  -4.59374 1.54872 -0.525431
Spine1  -9.27594 3.69651 -0.423898
HEad  -71.7923 -0.401428 8.40723
LeftShoulder1  -1.94126e-019 -3.10601e-018 -2.51263e-017
LeftArm  -102.717 -46.8864 42.9947
LeftForeArm  50.5902 -28.4294 -4.38205
LeftHand  -0.240563 -6.79497 2.63993
RightShoulder  -4.96962e-017 0 -2.36833e-017
RightArm  -124.753 41.1046 -62.9169
RightForeArm  73.7872 9.43438 1.50988
RightHand  -0.319754 2.73863 -4.7826
LeftUpLeg  -6.73538 3.09075 5.672
LeftLeg  11.7025 13.422 1.87175
LeftFoot  12.9824 -0.36144 3.3374
LeftToes  -33.4844 1.70063e-006 7.6642e-008
139
root  -19.3189 35.542 -14.7451 -170.239 4.66158 -178.685
RightUpLeg  -7.38252 -7.53858 -6.31203
RightLeg  6.68712 5.92908 0.312193
RightFoot  14.8854 -0.143267 1.60059
RightToes  -40.9878 -0.226422 -0.320634
Spine  -4.44589 1.37572 -0.785976
Spine1  -9.00007 3.31436 -0.828101
HEad  -71.1316 -0.543151 9.95572
LeftShoulder1  -1.94126e-019 -3.10601e-018 -2.51263e-017
LeftArm  -114.924 -47.9211 44.5068
LeftForeArm  47.968 -26.1054 -4.18218
LeftHand  -0.404943 -4.39273 5.08985
RightShoulder  -4.96962e-017 0 -2.36833e-017
RightArm  -136.52 40.2637 -64.1967
RightForeArm  80.254 6.73321 1.09446
RightHand  -0.193449 -0.228948 -4.35419
LeftUpLeg  -5.44624 2.38939 5.37737
LeftLeg  10.1016 14.5589 1.61875
LeftFoot  9.37618 -0.203511 2.64284
LeftToes  -27.8609 1.70063e-006 7.6642e-008
140
root  -19.297 35.0635 -14.6613 -171.323 4.37909 -179.089
RightUpLeg  -5.96475 -6.69186 -6.56319
RightLeg  6.5187 3.56955 0.177923
RightFoot  10.285 -0.0174893 0.710732
RightToes  -36.6409 -0.192221 -0.295372
Spine  -4.28983 1.07508 -0.856624
Spine1  -8.68899 2.61377 -1.00217
HEad  -68.2943 -1.27374 10.7624
LeftShoulder1  -1.94126e-019 -3.10601e-018 -2.51263e-017
LeftArm  -109.188 -46.8098 37.116
LeftForeArm  33.8343 -34.9124 -5.82968
LeftHand  -0.450646 -2.97189 6.49091
RightShoulder  -4.96962e-017 0 -2.36833e-017
RightArm  -131.533 41.5332 -59.4755
RightForeArm  69.079 13.5951 1.23062
RightHand  -0.325313 1.11111 -5.93532
LeftUpLeg  -3.70157 1.44492 4.79519
LeftLeg  8.86553 16.28 1.45562
LeftFoot  5.0714 -0.0662284 1.65698
LeftToes  -22.3559 1.70063e-006 7.6642e-008
141
root  -19.2747 34.6534 -14.5827 -172.218 4.46404 -179.295
RightUpLeg  -4.97661 -6.42021 -6.55983
RightLeg  6.45816 1.991 0.0976012
RightFoot  6.55484 0.0106063 0.336867
RightToes  -32.1558 -0.159045 -0.266667
Spine  -4.31872 0.51307 -0.819752
Spine1  -8.69647 1.18053 -1.04413
HEad  -64.1958 -2.24206 10.669
LeftShoulder1  -1.94126e-019 -3.10601e-018 -2.51263e-017
LeftArm  -97.03 -41.9784 25.8446
LeftForeArm  23.4925 -51.4942 -12.2586
LeftHand  -0.471003 -1.14925 8.50904
RightShoulder  -4.96962e-017 0 -2.36833e-017
RightArm  -112.454 41.2033 -47.984
RightForeArm  48.726 28.0443 3.39874
RightHand  -0.297688 -1.20331 -8.1581
LeftUpLeg  -3.56034 -0.306151 4.44731
LeftLeg  10.7983 18.1482 2.22551
LeftFoot  1.34797 -0.00527619 0.610099
LeftToes  -20.6663 1.70063e-006 7.6642e-008
142
root  -19.2202 34.6165 -14.5224 -172.831 4.89595 -179.745
RightUpLeg  -3.77474 -5.61291 -6.96512
RightLeg  4.91916 1.67358 0.0370944
RightFoot  6.53355 0.0136954 0.30223
RightToes  -32.3738 -0.160604 -0.268121
Spine  -4.2872 0.434022 -1.09004
Spine1  -8.63403 0.972817 -1.42347
HEad  -62.0451 -3.25342 10.2422
LeftShoulder1  -1.94126e-019 -3.10601e-018 -2.51263e-017
LeftArm  -85.9066 -34.5358 16.1828
LeftForeArm  36.5145 -70.425 -29.0117
LeftHand  -0.60889 -0.00366884 13.1772
RightShoulder  -4.96962e-017 0 -2.36833e-017
RightArm  -94.3066 35.3179 -30.3132
RightForeArm  47.6182 59.5702 14.5881
RightHand  0.0890793 -6.16103 -15.8251
LeftUpLeg  -2.14374 -1.15903 3.99584
LeftLeg  9.20134 19.1438 1.81385
LeftFoot  1.8204 -0.0100853 0.796386
LeftToes  -21.3234 1.70063e-006 7.6642e-008
143
root  -19.1154 34.724 -14.4635 -172.869 5.72365 -179.959
RightUpLeg  -3.45919 -5.6916 -7.05213
RightLeg  3.74957 2.53141 0.00381834
RightFoot  7.38441 0.00568431 0.424597
RightToes  -32.0165 -0.158051 -0.265734
Spine  -4.41766 0.554399 -1.34038
Spine1  -8.88358 1.17261 -1.64452
HEad  -61.3722 -4.25899 9.30821
LeftShoulder1  -1.94126e-019 -3.10601e-018 -2.51263e-017
LeftArm  -78.5373 -24.7572 9.93704
LeftForeArm  109.152 -80.3263 -97.7344
LeftHand  -0.980745 -1.17965 17.4223
RightShoulder  -4.96962e-017 0 -2.36833e-017
RightArm  -84.7276 25.7229 -18.2437
RightForeArm  105.056 80.9819 69.5924
RightHand  0.208129 -6.60441 -20.8317
LeftUpLeg  -0.868976 -0.0919064 3.95115
LeftLeg  6.64976 18.7871 0.955708
LeftFoot  3.44977 -0.0351046 1.32726
LeftToes  -21.2727 1.70063e-006 7.6642e-008
144
root  -19.008 34.7794 -14.3397 -171.898 6.44579 -179.683
RightUpLeg  -3.92107 -6.00471 -6.56072
RightLeg  2.10901 3.59435 -0.0980322
RightFoot  8.34679 -0.00665441 0.606953
RightToes  -31.8044 -0.156541 -0.264309
Spine  -4.89904 0.722346 -1.15403
Spine1  -9.81113 1.45325 -1.35838
HEad  -62.8372 -4.53817 7.61102
LeftShoulder1  -1.94126e-019 -3.10601e-018 -2.51263e-017
LeftArm  -76.0223 -16.7511 8.07267
LeftForeArm  156.059 -74.4155 -143.147
LeftHand  -1.28821 -2.26458 19.6176
RightShoulder  -4.96962e-017 0 -2.36833e-017
RightArm  -81.2676 17.1848 -12.8331
RightForeArm  -178.283 75.3581 145.645
RightHand  0.444438 -7.23786 -27.6708
LeftUpLeg  -1.11221 1.2179 4.38427
LeftLeg  5.06599 18.3258 0.434606
LeftFoot  4.22808 -0.0508962 1.5403
LeftToes  -21.4749 1.70063e-006 7.6642e-008
145
root  -18.9331 34.7358 -14.2399 -170.985 6.70818 -179.689
RightUpLeg  -4.13092 -7.61352 -6.41532
RightLeg  0.336412 5.53468 -0.322625
RightFoot  8.85161 -0.0288637 0.928209
RightToes  -33.6601 -0.16992 -0.276582
Spine  -5.50416 0.655914 -0.995676
Spine1  -10.9908 1.27051 -1.25594
HEad  -64.5632 -4.03002 6.4899
LeftShoulder1  -1.94126e-019 -3.10601e-018 -2.51263e-017
LeftArm  -77.0795 -15.138 10.1959
LeftForeArm  156.446 -73.311 -145.682
LeftHand  -1.31419 -2.42751 19.6006
RightShoulder  -4.96962e-017 0 -2.36833e-017
RightArm  -83.0192 16.4632 -12.7086
RightForeArm  177.444 73.5723 148.798
RightHand  0.80551 -8.57522 -28.8609
LeftUpLeg  -1.35588 2.71664 4.54531
LeftLeg  3.4912 17.2018 -0.0568437
LeftFoot  4.63775 -0.0571375 1.57251
LeftToes  -21.9829 1.70063e-006 7.6642e-008
146
root  -18.8412 34.662 -14.2476 -171.008 6.59557 -179.871
RightUpLeg  -3.55621 -9.59303 -6.52049
RightLeg  -0.683787 7.41667 -0.564132
RightFoot  8.67202 -0.0476033 1.19757
RightToes  -35.46 -0.183269 -0.288067
Spine  -5.84137 0.476783 -0.984897
Spine1  -11.6634 0.917688 -1.30267
HEad  -65.0671 -3.55457 6.42912
LeftShoulder1  -1.94126e-019 -3.10601e-018 -2.51263e-017
LeftArm  -80.0883 -19.5248 15.2397
LeftForeArm  132.266 -78.7949 -121.375
LeftHand  -1.08162 -2.2384 16.6003
RightShoulder  -4.96962e-017 0 -2.36833e-017
RightArm  -87.4757 22.524 -17.1796
RightForeArm  138.793 80.5052 112.056
RightHand  0.732071 -8.87609 -24.3574
LeftUpLeg  -0.256547 3.68595 4.61358
LeftLeg  1.31328 16.0406 -0.654993
LeftFoot  5.18052 -0.0666357 1.63444
LeftToes  -22.7186 1.70063e-006 7.6642e-008
